<?xml version="1.0" encoding="UTF-8"?>
<svg id="Layer_1" data-name="Layer 1" xmlns="http://www.w3.org/2000/svg" width="50" height="50" xmlns:xlink="http://www.w3.org/1999/xlink" viewBox="0 0 50 50">
  <defs>
    <filter id="AI_GaussianBlur_7">
      <feGaussianBlur stdDeviation="3"/>
    </filter>
    <radialGradient id="radial-gradient" cx="33" cy="33" fx="33" fy="33" r="32" gradientTransform="translate(.25 .25) scale(.75)" gradientUnits="userSpaceOnUse">
      <stop offset="0" stop-color="#091c30"/>
      <stop offset="1" stop-color="#143e68"/>
    </radialGradient>
    <linearGradient id="linear-gradient" x1="25" y1="49.75" x2="25" y2=".25" gradientUnits="userSpaceOnUse">
      <stop offset="0" stop-color="#0b2740"/>
      <stop offset="1" stop-color="#1e5994"/>
    </linearGradient>
  </defs>
  <g id="newRecordA">
    <g filter="url(#AI_GaussianBlur_7)" opacity=".5">
      <rect x="1" y="1" width="48" height="48" rx="9.619" ry="9.619"/>
    </g>
    <rect x="1" y="1" width="48" height="48" rx="9.619" ry="9.619" fill="url(#radial-gradient)" stroke="url(#linear-gradient)" stroke-miterlimit="10" stroke-width="1.5"/>
    <path d="M36.038,20.285c.619,1.448,.962,3.041,.962,4.715,0,6.627-5.373,12-12,12s-12-5.373-12-12,5.373-12,12-12c1.657,0,3.235,.336,4.671,.943" fill="none" stroke="#f2f2f2" stroke-linecap="round" stroke-miterlimit="10" stroke-width="1.5"/>
    <circle cx="25" cy="25" r="4.715" fill="#fff"/>
    <circle cx="25" cy="25" r="1.658"/>
    <line x1="33.009" y1="20.982" x2="33.009" y2="13" fill="none" stroke="#f2f2f2" stroke-linecap="round" stroke-miterlimit="10" stroke-width="1.5"/>
    <line x1="29.018" y1="16.991" x2="37" y2="16.991" fill="none" stroke="#f2f2f2" stroke-linecap="round" stroke-miterlimit="10" stroke-width="1.5"/>
  </g>
</svg>