<?xml version="1.0" encoding="UTF-8"?>
<svg id="Layer_1" data-name="Layer 1" xmlns="http://www.w3.org/2000/svg" width="50" height="50" xmlns:xlink="http://www.w3.org/1999/xlink" viewBox="0 0 50 50">
  <defs>
    <filter id="AI_GaussianBlur_7">
      <feGaussianBlur stdDeviation="3"/>
    </filter>
    <radialGradient id="radial-gradient" cx="33" cy="33" fx="33" fy="33" r="32" gradientTransform="translate(.25 .25) scale(.75)" gradientUnits="userSpaceOnUse">
      <stop offset="0" stop-color="#e6ab0f"/>
      <stop offset="1" stop-color="#ffcc1e"/>
    </radialGradient>
  </defs>
  <g id="settingsB">
    <g filter="url(#AI_GaussianBlur_7)">
      <rect x="1" y="1" width="48" height="48" rx="9.619" ry="9.619" fill="#ffcc1e"/>
    </g>
    <rect x="1" y="1" width="48" height="48" rx="9.619" ry="9.619" fill="url(#radial-gradient)" stroke="#ffc533" stroke-miterlimit="10" stroke-width="1.5"/>
    <path d="M36.25,21.814h-.634c-1.079,0-1.62-1.305-.857-2.068l.448-.448c.293-.293,.293-.768,0-1.061l-3.445-3.445c-.293-.293-.768-.293-1.061,0l-.448,.448c-.763,.763-2.068,.223-2.068-.857v-.634c0-.414-.336-.75-.75-.75h-4.872c-.414,0-.75,.336-.75,.75v.634c0,1.079-1.305,1.62-2.068,.857l-.448-.448c-.293-.293-.768-.293-1.061,0l-3.445,3.445c-.293,.293-.293,.768,0,1.061l.448,.448c.763,.763,.223,2.068-.857,2.068h-.634c-.414,0-.75,.336-.75,.75v4.872c0,.414,.336,.75,.75,.75h.634c1.079,0,1.62,1.305,.857,2.068l-.448,.448c-.293,.293-.293,.768,0,1.061l3.445,3.445c.293,.293,.768,.293,1.061,0l.448-.448c.763-.763,2.068-.223,2.068,.857v.634c0,.414,.336,.75,.75,.75h4.872c.414,0,.75-.336,.75-.75v-.634c0-1.079,1.305-1.62,2.068-.857l.448,.448c.293,.293,.768,.293,1.061,0l3.445-3.445c.293-.293,.293-.768,0-1.061l-.448-.448c-.763-.763-.223-2.068,.857-2.068h.634c.414,0,.75-.336,.75-.75v-4.872c0-.414-.336-.75-.75-.75Zm-11.25,8.322c-2.837,0-5.136-2.3-5.136-5.136s2.3-5.136,5.136-5.136,5.136,2.3,5.136,5.136-2.3,5.136-5.136,5.136Z" fill="none" stroke="#101318" stroke-linecap="round" stroke-miterlimit="10" stroke-width="1.5"/>
  </g>
</svg>